<?xml version="1.0" standalone="no"?>
<!DOCTYPE svg PUBLIC "-//W3C//DTD SVG 20010904//EN"
 "http://www.w3.org/TR/2001/REC-SVG-20010904/DTD/svg10.dtd">
<svg version="1.0" xmlns="http://www.w3.org/2000/svg"
 width="260.000000pt" height="260.000000pt" viewBox="0 0 260.000000 260.000000"
 preserveAspectRatio="xMidYMid meet">
<metadata>
Created by potrace 1.11, written by Peter Selinger 2001-2013
</metadata>
<g transform="translate(0.000000,260.000000) scale(0.100000,-0.100000)"
fill="#000000" stroke="none">
<path d="M1471 2407 c-23 -11 -34 -33 -76 -150 -11 -32 -26 -52 -45 -62 -36
-18 -263 -49 -306 -40 -34 6 -77 48 -132 128 -46 66 -67 68 -151 17 -89 -53
-121 -83 -121 -113 0 -13 16 -54 35 -93 19 -38 35 -80 35 -95 0 -45 -143 -250
-193 -276 -25 -13 -50 -14 -142 -9 -107 7 -111 6 -132 -16 -23 -24 -53 -129
-53 -184 0 -47 30 -77 126 -124 71 -35 88 -48 100 -77 16 -38 31 -245 20 -286
-3 -15 -33 -48 -69 -78 -67 -56 -97 -93 -97 -123 0 -31 42 -105 86 -152 49
-54 75 -56 159 -14 33 16 72 30 86 30 47 0 235 -127 270 -183 17 -29 19 -43
13 -134 -7 -101 -7 -102 20 -127 27 -24 134 -56 189 -56 39 0 73 35 102 107
16 38 38 78 49 90 28 30 110 45 249 47 l108 1 25 -30 c14 -16 40 -52 57 -80
31 -48 34 -50 77 -50 36 1 59 10 117 47 106 69 109 80 52 210 -23 53 -27 72
-19 92 16 44 103 169 152 220 l47 49 101 -8 c84 -5 105 -4 125 9 39 25 57 73
63 161 5 81 4 82 -24 102 -16 11 -53 28 -82 38 -88 28 -101 46 -118 155 -14
99 -18 217 -8 245 4 8 34 36 68 60 89 63 100 77 93 124 -5 39 -65 145 -95 169
-26 20 -83 14 -150 -18 -100 -47 -112 -44 -249 63 -65 51 -124 105 -131 119
-10 21 -10 42 -2 90 16 102 13 142 -12 165 -39 36 -176 61 -217 40z m-16 -439
c28 -6 73 -21 100 -33 49 -21 50 -22 17 -23 -51 -1 -96 -20 -126 -51 -27 -28
-29 -28 -114 -24 -163 9 -299 -42 -413 -156 -96 -96 -145 -204 -155 -341 -12
-154 38 -290 147 -405 111 -116 226 -165 389 -165 157 0 267 46 376 154 110
110 154 219 154 382 0 100 -21 187 -64 261 -23 39 -24 45 -10 70 16 33 19 125
3 156 -5 12 15 -4 46 -36 128 -134 194 -352 165 -549 -32 -219 -163 -410 -349
-507 -120 -62 -177 -75 -321 -75 -110 0 -134 3 -203 27 -118 41 -184 83 -272
171 -130 130 -195 292 -195 481 0 438 398 758 825 663z m-10 -400 c62 -32 96
-67 131 -138 23 -46 28 -68 28 -130 0 -179 -126 -306 -304 -304 -86 0 -143 21
-204 74 -83 73 -116 206 -81 325 22 76 107 166 181 189 73 24 186 16 249 -16z"/>
</g>
</svg>
